<?xml version="1.0" encoding="iso-8859-1"?>
<!-- Uploaded to: SVG Repo, www.svgrepo.com, Generator: SVG Repo Mixer Tools -->
<svg height="800px" width="800px" version="1.1" id="Layer_1" xmlns="http://www.w3.org/2000/svg" xmlns:xlink="http://www.w3.org/1999/xlink" 
	 viewBox="0 0 512 512" xml:space="preserve">
<g>
	<path style="fill:#A7E2DE;" d="M450.282,288.524c31.048-25.475,50.948-64.103,50.948-107.16
		c0-76.235-62.375-138.606-138.609-138.606H149.376C73.141,42.757,10.77,105.128,10.77,181.365
		c0,76.235,62.371,138.606,138.606,138.606l176.091-0.002c17.215-25.716,46.53-42.645,79.802-42.645
		C421.537,277.325,436.86,281.374,450.282,288.524z"/>
	<path style="fill:#85BF4F;" d="M450.282,288.524c-13.423-7.15-28.745-11.198-45.013-11.198c-33.272,0-62.586,16.929-79.802,42.645
		c-10.207,15.247-16.158,33.587-16.158,53.314c0,52.998,42.962,95.959,95.96,95.959s95.961-42.961,95.961-95.959
		C501.23,336.554,480.595,304.644,450.282,288.524L450.282,288.524z M379.842,368.078h50.855c6.994,0,12.714,5.72,12.714,12.714
		v25.427c0,6.994-5.719,12.714-12.714,12.714h-50.855c-6.994,0-12.714-5.72-12.714-12.714v-25.427
		C367.128,373.797,372.847,368.078,379.842,368.078z"/>
	<path style="fill:#EDA23F;" d="M430.696,368.078h-50.855c-6.994,0-12.714,5.72-12.714,12.714v25.427
		c0,6.994,5.72,12.714,12.714,12.714h50.855c6.994,0,12.714-5.72,12.714-12.714v-25.427
		C443.41,373.797,437.691,368.078,430.696,368.078z"/>
</g>
<g>
	<path style="fill:#000003;" d="M210.686,192.135h19.312l-13.656,13.656c-4.205,4.206-4.206,11.024,0,15.231
		c2.103,2.103,4.859,3.156,7.615,3.156c2.757,0,5.512-1.052,7.615-3.155l13.656-13.656v19.312c0,5.947,4.822,10.77,10.77,10.77
		c5.947,0,10.77-4.823,10.77-10.77v-19.314l13.659,13.659c2.103,2.102,4.859,3.155,7.614,3.155c2.756,0,5.513-1.052,7.617-3.156
		c4.205-4.206,4.205-11.024-0.001-15.231L282,192.135h19.312c5.948,0,10.77-4.822,10.77-10.77c0-5.947-4.822-10.77-10.77-10.77
		h-22.778c0.299-3.093-0.733-6.292-3.103-8.661s-5.569-3.403-8.663-3.103v-22.779c0-5.948-4.823-10.77-10.77-10.77
		c-5.948,0-10.77,4.822-10.77,10.77v19.312l-13.656-13.656c-4.207-4.206-11.025-4.205-15.232,0.001
		c-4.206,4.206-4.205,11.024,0,15.231l13.657,13.656h-19.313c-5.948,0-10.77,4.823-10.77,10.77
		C199.916,187.315,204.738,192.135,210.686,192.135z"/>
	<path style="fill:#000003;" d="M287.73,160.405c2.743,0,5.488-1.043,7.59-3.129l0.312-0.31c4.22-4.192,4.243-11.011,0.052-15.231
		c-4.193-4.22-11.011-4.242-15.232-0.052l-0.312,0.31c-4.22,4.192-4.242,11.011-0.052,15.232
		C282.194,159.344,284.961,160.405,287.73,160.405z"/>
	<path style="fill:#000003;" d="M176.143,181.365c0-5.947-4.821-10.77-10.77-10.77h-19.315l13.656-13.656
		c4.206-4.206,4.206-11.025,0-15.232c-4.205-4.206-11.024-4.206-15.232,0l-13.655,13.656v-19.312c0-5.948-4.823-10.77-10.77-10.77
		c-5.947,0-10.77,4.822-10.77,10.77v19.312L95.63,141.707c-4.206-4.206-11.025-4.206-15.232,0c-4.206,4.206-4.206,11.025,0,15.232
		l13.656,13.656H74.742c-5.948,0-10.77,4.823-10.77,10.77c0,5.948,4.822,10.77,10.77,10.77h19.313l-13.655,13.656
		c-4.206,4.206-4.206,11.025,0,15.232c2.102,2.102,4.861,3.155,7.615,3.155c2.756,0,5.513-1.052,7.615-3.155l13.656-13.656v19.312
		c0,5.947,4.823,10.77,10.77,10.77c5.947,0,10.77-4.823,10.77-10.77v-19.312l13.655,13.656c2.103,2.102,4.861,3.155,7.617,3.155
		s5.512-1.052,7.614-3.155c4.206-4.206,4.206-11.025,0-15.232l-13.655-13.656h19.314
		C171.321,192.135,176.143,187.315,176.143,181.365z"/>
	<path style="fill:#000003;" d="M346.627,192.135h19.312l-13.656,13.656c-4.206,4.206-4.206,11.024-0.001,15.231
		c2.103,2.103,4.859,3.156,7.617,3.156c2.756,0,5.512-1.052,7.614-3.155l13.656-13.656v19.312c0,5.947,4.822,10.77,10.77,10.77
		s10.77-4.823,10.77-10.77v-19.314l13.659,13.659c2.103,2.102,4.859,3.155,7.616,3.155c2.757,0,5.512-1.052,7.616-3.156
		c4.206-4.206,4.205-11.024,0-15.231l-13.656-13.656h19.312c5.947,0,10.77-4.822,10.77-10.77c0-5.947-4.823-10.77-10.77-10.77
		h-19.312l13.657-13.656c4.205-4.206,4.206-11.024,0-15.231c-4.207-4.206-11.025-4.206-15.232-0.001l-13.659,13.659v-19.314
		c0-5.948-4.822-10.77-10.77-10.77s-10.77,4.822-10.77,10.77v19.312l-13.656-13.656c-4.206-4.206-11.024-4.205-15.232,0.001
		c-4.205,4.206-4.205,11.024,0.001,15.231l13.658,13.656h-19.313c-5.948,0-10.77,4.823-10.77,10.77
		C335.857,187.315,340.678,192.135,346.627,192.135z"/>
	<path style="fill:#000003;" d="M467.998,286.991c28.117-28.001,44.001-65.746,44.001-105.627
		c0-82.367-67.012-149.376-149.379-149.376H149.376C67.01,31.987,0,98.997,0,181.365c0,82.367,67.01,149.376,149.376,149.376h158.02
		c-5.69,13.041-8.855,27.428-8.855,42.542c0,58.851,47.879,106.729,106.73,106.729S512,432.134,512,373.283
		C512,337.857,494.645,306.414,467.998,286.991z M149.376,309.202c-70.489,0-127.836-57.347-127.836-127.838
		c0-70.49,57.347-127.837,127.836-127.837H362.62c70.491,0,127.839,57.347,127.839,127.838c0,36.044-15.181,70.07-41.873,94.384
		c-13.245-5.904-27.903-9.194-43.316-9.194c0,0-0.001,0-0.002,0l0,0H181.032c-5.948,0-10.77,4.823-10.77,10.77
		c0,5.948,4.822,10.77,10.77,10.77H341.05c-7.967,6.022-15.067,13.13-21.075,21.107H149.376z M405.271,458.472
		c-46.974,0-85.19-38.214-85.19-85.189c0-46.972,38.215-85.189,85.19-85.189c46.972,0,85.189,38.215,85.189,85.189
		C490.46,420.258,452.243,458.472,405.271,458.472z"/>
	<path style="fill:#000003;" d="M430.696,357.308h-42.591l-2.679-9.996c-1.006-3.756-0.477-7.699,1.492-11.108
		c1.967-3.408,5.118-5.837,8.875-6.844c4.524-1.213,9.417-0.143,13.092,2.859c4.606,3.765,11.39,3.082,15.153-1.522
		c3.765-4.604,3.083-11.39-1.521-15.155c-9.026-7.379-21.104-9.989-32.302-6.989c-9.312,2.493-17.109,8.489-21.954,16.88
		c-4.844,8.39-6.137,18.14-3.645,27.446l2.24,8.354c-6.324,4.213-10.501,11.405-10.501,19.556v25.427
		c0,12.949,10.534,23.484,23.484,23.484h50.855c12.949,0,23.484-10.534,23.484-23.484v-25.427
		C454.18,367.842,443.646,357.308,430.696,357.308z M432.64,406.219c0,1.054-0.89,1.944-1.944,1.944h-50.855
		c-1.054,0-1.944-0.89-1.944-1.944v-25.427c0-1.046,0.877-1.929,1.92-1.942c0.005,0,0.011,0,0.017,0
		c0.015,0,0.031-0.002,0.048-0.002h50.813c1.054,0,1.944,0.89,1.944,1.944V406.219z"/>
	<path style="fill:#000003;" d="M150.16,266.555h-0.783c-5.948,0-10.77,4.823-10.77,10.77c0,5.948,4.822,10.77,10.77,10.77h0.783
		c5.949,0,10.77-4.822,10.77-10.77C160.93,271.378,156.108,266.555,150.16,266.555z"/>
</g>
</svg>